<?xml version="1.0" standalone="no"?>
<!DOCTYPE svg PUBLIC "-//W3C//DTD SVG 20010904//EN"
 "http://www.w3.org/TR/2001/REC-SVG-20010904/DTD/svg10.dtd">
<svg version="1.0" xmlns="http://www.w3.org/2000/svg"
 width="422.000000pt" height="360.000000pt" viewBox="0 0 422.000000 360.000000"
 preserveAspectRatio="xMidYMid meet">

<g transform="translate(0.000000,360.000000) scale(0.100000,-0.100000)"
fill="#FAFAFA" stroke="none">
<path d="M530 3171 c-32 -5 -35 -9 -35 -41 l0 -35 265 -5 265 -5 7 -940 c4
-581 3 -972 -3 -1025 -34 -302 -193 -491 -456 -544 -53 -11 -58 -14 -64 -45
-8 -40 3 -46 69 -37 267 38 463 233 523 521 17 83 19 139 18 765 -1 371 -4
837 -8 1035 l-6 360 -270 1 c-148 1 -286 -1 -305 -5z"/>
<path d="M3569 1983 c-78 -104 -145 -192 -149 -196 -6 -7 -96 102 -260 316
-43 55 -46 57 -92 57 -27 0 -48 -4 -48 -10 0 -5 16 -10 35 -10 l35 0 0 -285 0
-285 -30 0 c-16 0 -30 -4 -30 -10 0 -6 33 -10 80 -10 66 0 80 3 80 16 0 10 -8
15 -22 14 -13 -1 -29 -2 -35 -1 -10 1 -13 61 -13 267 l0 266 123 -159 c168
-219 165 -215 175 -209 5 3 70 85 143 182 l134 177 8 -89 c4 -49 6 -165 5
-259 l-3 -170 -33 -3 c-20 -2 -32 -8 -29 -15 2 -8 32 -13 80 -15 63 -2 77 0
77 12 0 9 -12 16 -32 18 l-33 3 -3 278 -2 277 35 0 c24 0 35 5 35 15 0 11 -12
15 -44 15 l-45 0 -142 -187z"/>
<path d="M1783 2141 c-137 -47 -216 -154 -217 -296 -1 -114 56 -209 163 -273
58 -34 175 -42 250 -17 l51 17 0 120 0 121 -61 -7 c-34 -3 -70 -6 -80 -6 -11
0 -19 -4 -19 -10 0 -5 30 -10 68 -12 l67 -3 0 -90 c0 -90 0 -90 -30 -105 -19
-9 -59 -15 -105 -15 -66 0 -82 4 -130 31 -247 139 -165 514 117 532 41 3 78
-1 113 -13 51 -17 68 -16 56 4 -9 14 -108 41 -153 41 -21 -1 -61 -9 -90 -19z"/>
<path d="M2280 2145 c0 -10 10 -15 30 -15 l30 0 0 -280 0 -280 -31 0 c-18 0
-29 -5 -27 -11 3 -8 42 -11 122 -10 150 3 208 22 281 95 61 60 85 121 85 211
0 81 -23 144 -72 200 -69 79 -151 105 -325 105 -76 0 -93 -3 -93 -15z m312
-39 c136 -66 193 -239 124 -380 -47 -96 -130 -144 -263 -153 l-83 -6 0 283 0
282 93 -4 c60 -3 105 -10 129 -22z"/>
</g>
</svg>
